<?xml version="1.0" encoding="UTF-8" standalone="no"?>
<!-- Created with Inkscape (http://www.inkscape.org/) -->

<svg
   version="1.1"
   id="svg1"
   width="1024"
   height="1024"
   viewBox="0 0 1024 1024"
   sodipodi:docname="CoreTech_Isotipo_BlueIndigo.svg"
   inkscape:version="1.4.2 (ebf0e940d0, 2025-05-08)"
   xmlns:inkscape="http://www.inkscape.org/namespaces/inkscape"
   xmlns:sodipodi="http://sodipodi.sourceforge.net/DTD/sodipodi-0.dtd"
   xmlns="http://www.w3.org/2000/svg"
   xmlns:svg="http://www.w3.org/2000/svg">
  <sodipodi:namedview
     id="namedview1"
     pagecolor="#505050"
     bordercolor="#eeeeee"
     borderopacity="1"
     inkscape:showpageshadow="0"
     inkscape:pageopacity="0"
     inkscape:pagecheckerboard="0"
     inkscape:deskcolor="#505050"
     inkscape:zoom="0.63562609"
     inkscape:cx="377.58047"
     inkscape:cy="598.62237"
     inkscape:window-width="1920"
     inkscape:window-height="999"
     inkscape:window-x="0"
     inkscape:window-y="40"
     inkscape:window-maximized="1"
     inkscape:current-layer="svg1" />
  <defs
     id="defs1" />
  <g
     id="g1"
     style="fill:#1c3d5b;fill-opacity:1">
    <path
       style="fill:#1c3d5b;fill-opacity:1;stroke-width:1.4539"
       d="M 81.066841,965.2769 C 131.06074,915.06767 181.08509,864.88798 231.09896,814.69838 h 557.49556 c 49.67251,50.92376 101.20523,100.04879 150.63709,151.20565 H 80.461059 Z M 829.70444,787.43507 V 624.69129 C 742.27098,621.89734 654.74924,622.80722 567.2754,622.64612 503.02247,588.74657 438.01894,556.05854 374.78268,520.31596 470.33992,470.83495 486.17846,460.22881 567.2754,417.86215 l 262.42904,-0.0786 0.0663,-181.01061 C 880.6762,185.0216 931.51782,133.20761 982.36399,81.398104 V 941.18767 Z M 40.236474,85.569751 C 90.997854,137.34713 141.97607,188.91149 192.89603,240.53285 L 192.80981,786.34732 40.336473,940.46077 C 40.108764,655.49831 39.946101,370.53304 40.236445,85.569751 Z m 42.426837,-26.17268 c 283.863779,-0.992578 567.726309,-0.490997 851.590199,0 L 788.26828,207.0804 l -559.944,-0.11239 z"
       id="path1"
       sodipodi:nodetypes="ccccccccccccccccscccssccccc" />
  </g>
</svg>
